<svg width="17" height="20" viewBox="0 0 17 20" fill="none" xmlns="http://www.w3.org/2000/svg">
<path d="M0 16.6883V14.725H2.02667V7.85333C2.02667 6.49536 2.44889 5.29282 3.29333 4.24571C4.13778 3.18224 5.23556 2.48689 6.58667 2.15967V1.4725C6.58667 1.06347 6.73022 0.719888 7.01733 0.441749C7.32133 0.14725 7.68444 0 8.10667 0C8.52889 0 8.88356 0.14725 9.17067 0.441749C9.47467 0.719888 9.62667 1.06347 9.62667 1.4725V2.15967C10.9778 2.48689 12.0756 3.18224 12.92 4.24571C13.7644 5.29282 14.1867 6.49536 14.1867 7.85333V14.725H16.2133V16.6883H0ZM8.10667 19.6333C7.54933 19.6333 7.068 19.4452 6.66267 19.0689C6.27422 18.6762 6.08 18.2099 6.08 17.67H10.1333C10.1333 18.2099 9.93067 18.6762 9.52533 19.0689C9.13689 19.4452 8.664 19.6333 8.10667 19.6333ZM4.05333 14.725H12.16V7.85333C12.16 6.7735 11.7631 5.8491 10.9693 5.08012C10.1756 4.31115 9.22133 3.92667 8.10667 3.92667C6.992 3.92667 6.03778 4.31115 5.244 5.08012C4.45022 5.8491 4.05333 6.7735 4.05333 7.85333V14.725Z" fill="black"/>
</svg>
